{"title":"Safe 2012 R5 LiNE Xvid-YanKeeS","uid":7300592,"size":733816456,"categoryP":"video","categoryS":"movies","magnet":"?xt=urn:btih:c53d193584e29c0d02496447baf0ea25f7a5493e&amp;dn=Safe+2012+R5+LiNE+Xvid-YanKeeS&amp;tr=udp%3A%2F%2Ftracker.openbittorrent.com%3A80&amp;tr=udp%3A%2F%2Fopen.demonii.com%3A1337&amp;tr=udp%3A%2F%2Ftracker.coppersurfer.tk%3A6969&amp;tr=udp%3A%2F%2Fexodus.desync.com%3A6969","seeders":0,"leechers":1,"uploader":"srkfan","files":4,"time":1338026375,"description":"Poster : http://lookpic.com/O/i2/776/HA6cHBCX.jpeg\n\n\nSource Video: Zashitnik.2012.D.DVDRip.avi\nSource Audio: UnKnOwN (Thanks)\n\nComplete name : Safe.2012.R5.LiNE.XviD-YanKeeS.avi\nFormat : AVI\nFormat/Info : Audio Video Interleave\nFormat profile : OpenDML\nFile size : 700 MiB\nDuration : 1h 30mn\nOverall bit rate : 1 083 Kbps\n\nVideo\nID : 0\nFormat : MPEG-4 Visual\nFormat profile : Advanced Simple@L5\nFormat settings, BVOP : 2\nFormat settings, QPel : No\nFormat settings, GMC : No warppoints\nFormat settings, Matrix : Custom\nCodec ID : XVID\nCodec ID/Hint : XviD\nDuration : 1h 30mn\nBit rate : 946 Kbps\nWidth : 720 pixels\nHeight : 304 pixels\nDisplay aspect ratio : 2.35:1\nFrame rate : 25.000 fps\nColor space : YUV\nChroma subsampling : 4:2:0\nBit depth : 8 bits\nScan type : Progressive\nCompression mode : Lossy\nBits/(Pixel*Frame) : 0.173\nStream size : 611 MiB (87%)\nWriting library : XviD 1.2.1 (UTC 2008-12-04)\n\nAudio\nID : 1\nFormat : MPEG Audio\nFormat version : Version 1\nFormat profile : Layer 3\nMode : Joint stereo\nMode extension : MS Stereo\nCodec ID : 55\nCodec ID/Hint : MP3\nDuration : 1h 30mn\nBit rate mode : Constant\nBit rate : 128 Kbps\nChannel(s) : 2 channels\nSampling rate : 48.0 KHz\nCompression mode : Lossy\nStream size : 82.7 MiB (12%)\nAlignment : Aligned on interleaves\nInterleave, duration : 24 ms (0.60 video frame)\nInterleave, preload duration : 192 ms\nTitle : English - YanKeeS\n\n","torrent":{"xt":"urn:btih:c53d193584e29c0d02496447baf0ea25f7a5493e","amp;dn":"Safe+2012+R5+LiNE+Xvid-YanKeeS","amp;tr":["udp%3A%2F%2Ftracker.openbittorrent.com%3A80","udp%3A%2F%2Fopen.demonii.com%3A1337","udp%3A%2F%2Ftracker.coppersurfer.tk%3A6969","udp%3A%2F%2Fexodus.desync.com%3A6969"],"infoHash":"c53d193584e29c0d02496447baf0ea25f7a5493e","infoHashBuffer":{"type":"Buffer","data":[197,61,25,53,132,226,156,13,2,73,100,71,186,240,234,37,247,165,73,62]},"announce":[],"urlList":[]}}